# xmcd
#
# Track frame offsets:
#	150
#	13435
#	26178
#	38793
#	50949
#	68416
#	79419
#	93895
#	112546
#	128400
#
# Disc length: 1990 seconds
#
# Revision: 2
# Processed by: cddbd v1.5.1PL2 Copyright (c) Steve Scherf et al.
# Submitted via: audiograbber 1.83.01
#
DISCID=7a07c40a
DTITLE=Curt och Roland - Allting annorlunda
DYEAR=1900
DGENRE=Country
TTITLE0=Annorlunda nu 2,57
TTITLE1=Klippa du som brast för mig 2,49
TTITLE2=Vad skönt det blir 2,48
TTITLE3=I´ll fly away 2,42
TTITLE4=Jesus är hans namn 3,52
TTITLE5=Son av fridens land 2,26
TTITLE6=Så är det med Guds kärlek 3,13
TTITLE7=Vi måste lära oss att se 4,08
TTITLE8=If that isn't love 3,31
TTITLE9=Var jag går i skogar berg och dalar 4,38
EXTD=
EXTT0=
EXTT1=
EXTT2=
EXTT3=
EXTT4=
EXTT5=
EXTT6=
EXTT7=
EXTT8=
EXTT9=
PLAYORDER=
